<?xml version="1.0" standalone="no"?>
<!DOCTYPE svg PUBLIC "-//W3C//DTD SVG 20010904//EN"
 "http://www.w3.org/TR/2001/REC-SVG-20010904/DTD/svg10.dtd">
<svg version="1.0" xmlns="http://www.w3.org/2000/svg"
 width="121.000000pt" height="121.000000pt" viewBox="0 0 121.000000 121.000000"
 preserveAspectRatio="xMidYMid meet">
<metadata>
Created by potrace 1.11, written by Peter Selinger 2001-2013
</metadata>
<g transform="translate(0.000000,121.000000) scale(0.100000,-0.100000)"
fill="#000000" stroke="none">
<path d="M480 1184 c-108 -29 -175 -87 -222 -190 -17 -39 -23 -78 -30 -194 -4
-80 -10 -175 -14 -212 -8 -83 0 -126 29 -169 12 -19 29 -54 36 -79 18 -60 57
-136 95 -185 18 -22 45 -59 61 -83 27 -40 31 -43 69 -40 36 3 42 7 50 34 8 28
13 31 48 30 28 0 38 -5 38 -17 0 -9 8 -27 18 -39 28 -35 76 -20 109 33 14 23
41 59 61 81 19 21 50 73 69 115 18 42 50 108 69 146 29 59 34 80 34 137 0 37
-5 79 -10 93 -6 15 -13 80 -16 144 -9 191 -40 270 -131 333 -103 70 -242 94
-363 62z m301 -157 c39 -26 46 -60 13 -65 -40 -6 -92 57 -67 81 10 11 18 9 54
-16z m-325 -18 c8 -14 -55 -79 -78 -79 -26 0 -23 36 7 65 25 26 59 33 71 14z
m182 -62 c29 -30 41 -87 19 -87 -9 0 -24 14 -34 30 -9 17 -20 30 -23 30 -4 0
-19 -13 -35 -30 -16 -16 -32 -30 -37 -30 -18 0 -6 50 18 79 31 37 62 40 92 8z
m67 -265 c57 -28 92 -61 114 -106 28 -62 27 -93 -9 -149 -35 -55 -36 -60 -14
-82 21 -21 12 -55 -28 -100 -45 -52 -96 -75 -167 -75 -33 0 -63 5 -66 10 -3 6
-15 10 -26 10 -23 0 -105 73 -115 102 -4 14 1 24 15 34 27 20 26 36 -5 90 -23
39 -26 53 -21 110 4 54 9 70 33 96 73 76 203 103 289 60z"/>
<path d="M520 487 c-18 -9 -28 -26 -37 -61 -17 -70 -1 -140 44 -185 31 -31 37
-33 79 -28 62 7 103 47 115 113 17 89 -13 153 -64 140 -17 -4 -30 0 -42 14
-21 23 -58 26 -95 7z"/>
</g>
</svg>
