<svg id="Calque_1" data-name="Calque 1" xmlns="http://www.w3.org/2000/svg" viewBox="0 0 245.23 74"><defs><style>.cls-1{fill:#c6ebe5;}.cls-2{fill:#828282;}</style></defs><title>petale</title><path class="cls-1" d="M24.07,9.31C22,4.13,14.2,4.55,9.25,7.22s-5.39,7.26-4.7,9.49c1,3.22,5.51,6.47,12.17,3S25.84,13.71,24.07,9.31Z" transform="translate(-4.3 -0.75)"/><path class="cls-2" d="M25.27,12C27,7.61,20.61,3.28,16.85,2.1c-2.13-.67-7.72-1.1-9,2.82s4.08,8,8,9.39S23.79,15.67,25.27,12Z" transform="translate(-4.3 -0.75)"/><path class="cls-2" d="M25.57,8.42c-48.59-27.27,137,33.27,224-7.67C179.72,45.09,190.48,77,126.89,74.62S32.18,12.12,25.57,8.42Z" transform="translate(-4.3 -0.75)"/></svg>